Seasons 3 Part 2 of Shin Chan

ANN Link to the Show 
http://www.animenewsnetwork.com/encyclopedia/anime.php?id=540

Plot Summary: Shinnosuke "Shin-chan" Nohara is a little boy who seems to do everything he can to annoy his parents and teachers (and succeeds wildly), but only means the best. He just tries to have a good time and in doing so does things which will create the maximum vexation in others.

AVC/AAC MP4's
Resolution: 720x408
Frame rate: 23.976 fps


Includes:
Episodes 66 - 78


Enjoy and Please Seed.

Can't play the files? Download and use CCCP and stop living in the past. http://cccp-project.net/

Example File Info:

General
Complete name                    : Shin Chan Episode 73 - Tell the Stork to Give me a Fetus.mp4
Format                           : MPEG-4
Format profile                   : Base Media
Codec ID                         : isom
File size                        : 95.4 MiB
Duration                         : 25mn 5s
Overall bit rate                 : 532 Kbps

Video
ID                               : 1
Format                           : AVC
Format/Info                      : Advanced Video Codec
Format profile                   : High@L5.1
Format settings, CABAC           : Yes
Format settings, ReFrames        : 9 frames
Codec ID                         : avc1
Codec ID/Info                    : Advanced Video Coding
Duration                         : 25mn 5s
Bit rate mode                    : Variable
Bit rate                         : 336 Kbps
Maximum bit rate                 : 3 636 Kbps
Width                            : 720 pixels
Height                           : 408 pixels
Display aspect ratio             : 16:9
Frame rate mode                  : Constant
Frame rate                       : 23.976 fps
Color space                      : YUV
Chroma subsampling               : 4:2:0
Bit depth                        : 8 bits
Scan type                        : Progressive
Bits/(Pixel*Frame)               : 0.048
Stream size                      : 60.2 MiB (63%)
Title                            : Imported with GPAC 0.4.6-DEV (build 1)
Writing library                  : x264 core 92 r1510 33d382a
Encoding settings                : *snipped*


Audio
ID                               : 2
Format                           : AAC
Format/Info                      : Advanced Audio Codec
Format profile                   : LC
Codec ID                         : 40
Duration                         : 25mn 5s
Bit rate mode                    : Variable
Bit rate                         : 192 Kbps
Maximum bit rate                 : 223 Kbps
Channel(s)                       : 2 channels
Channel positions                : Front: L R
Sampling rate                    : 48.0 KHz
Compression mode                 : Lossy
Stream size                      : 34.5 MiB (36%)
